<svg version="1.1" id="Layer_1"
  xmlns="http://www.w3.org/2000/svg"
  xmlns:xlink="http://www.w3.org/1999/xlink" x="0px" y="0px" viewBox="0 0 354 354" style="enable-background:new 0 0 354 354;" xml:space="preserve">
  <g>
    <path stroke="null" id="svg_2" fill="#f5831f" d="m661.154996,179.514776zm-484.806921,94.556004c-53.552707,0 -97.581063,-42.845833 -97.581063,-95.20685s44.000855,-95.197683 97.581063,-95.197683s97.581063,42.836666 97.581063,95.197683s-44.000855,95.20685 -97.581063,95.20685m-0.238338,-266.56268c-97.581063,0 -176.113422,77.349836 -176.113422,171.35583c0,95.20685 78.541526,171.364997 176.113422,171.364997c40.462453,0 77.349836,-13.090254 107.105415,-35.750695c17.847847,29.755578 69.017174,35.750695 69.017174,35.750695l0,-171.364997c0,-94.005993 -78.541526,-171.35583 -176.122589,-171.35583m858.135842,-101.165299"/>
  </g>
</svg>
