<svg version="1.1" id="Layer_1"
  xmlns="http://www.w3.org/2000/svg"
  xmlns:xlink="http://www.w3.org/1999/xlink" x="0px" y="0px" viewBox="0 0 354 354" style="enable-background:new 0 0 354 354;" xml:space="preserve">
  <style type="text/css">.st0 {fill:#37474F;}</style>
  <g>
    <path stroke="null" d="m1.601088,83l16.585611,0c7.229625,0 13.183435,2.12636 17.861427,6.804353c4.677993,4.252721 6.804353,9.781258 6.804353,16.585611c0,7.654897 -2.12636,13.608707 -6.804353,18.2867c-4.677993,4.252721 -10.631802,6.804353 -17.861427,6.804353l-16.585611,0l0,-48.481017zm11.482346,39.125032l5.103265,0c4.252721,0 7.654897,-1.275816 10.20653,-4.252721c2.551632,-2.551632 3.402177,-6.804353 3.402177,-11.907618c0,-4.252721 -1.275816,-7.654897 -3.827449,-10.20653c-2.12636,-2.551632 -5.528537,-3.827449 -10.20653,-3.827449l-4.677993,0l0,30.194318zm71.870982,8.930714l-2.976905,-9.781258l-17.010883,0l-2.976905,9.781258l-11.482346,0l16.160339,-48.055745l14.033979,0l16.160339,48.055745l-11.907618,0zm-17.010883,-18.711972l11.482346,0l-0.425272,-1.701088c-1.275816,-4.677993 -2.551632,-8.505442 -3.402177,-11.907618c-0.850544,-3.402177 -1.275816,-5.528537 -1.701088,-6.379081l-0.425272,-1.275816c0,2.551632 -2.12636,8.930714 -5.103265,19.562516l-0.425272,1.701088zm68.043533,-29.343774l0,8.930714l-11.907618,0l0,39.125032l-11.057074,0l0,-39.125032l-11.907618,0l0,-8.930714l34.872311,0zm38.69976,48.055745l-2.976905,-9.781258l-17.010883,0l-2.976905,9.781258l-11.482346,0l16.160339,-48.055745l14.033979,0l16.160339,48.055745l-11.907618,0zm-17.436155,-18.711972l11.482346,0l-0.425272,-1.701088c-1.275816,-4.677993 -2.551632,-8.505442 -3.402177,-11.907618c-0.850544,-3.402177 -1.275816,-5.528537 -1.701088,-6.379081l-0.425272,-1.275816c0,2.551632 -1.701088,8.930714 -5.103265,19.562516l-0.425272,1.701088zm64.216085,-28.49323l8.08017,0l4.677993,17.010883c0.850544,3.402177 1.701088,6.804353 2.551632,9.781258c0.850544,2.976905 1.275816,5.103265 1.701088,6.379081l0.425272,2.12636c0.425272,-4.252721 2.12636,-10.20653 3.827449,-18.2867l4.252721,-17.436155l11.057074,0l-12.758162,48.055745l-12.33289,0l-4.252721,-15.309795c-0.850544,-3.827449 -1.701088,-6.804353 -2.551632,-9.355986c0,-2.551632 -0.425272,-4.252721 -0.425272,-5.103265l0,-1.275816c0,2.12636 -1.275816,7.229625 -3.827449,15.309795l-4.252721,15.309795l-12.33289,0l-13.608707,-48.055745l11.482346,0l4.252721,17.861427c0.850544,3.827449 1.701088,7.229625 2.551632,10.20653c0.425272,2.976905 0.850544,5.103265 1.275816,6.379081l0.425272,1.701088c0.850544,-3.827449 2.551632,-9.781258 4.677993,-18.2867l5.103265,-17.010883zm59.538092,38.274487l18.711972,0l0,8.930714l-29.769046,0l0,-48.055745l29.769046,0l0,8.930714l-18.711972,0l0,11.057074l16.585611,0l0,8.505442l-16.585611,0l0,10.631802zm34.447039,-39.125032l18.711972,0c5.103265,0 9.355986,1.275816 11.907618,3.827449c2.551632,2.551632 4.252721,5.528537 4.252721,9.355986c0,2.551632 -0.850544,4.677993 -2.12636,6.804353c-1.275816,1.701088 -2.976905,2.976905 -5.103265,3.827449c5.528537,1.701088 8.505442,5.528537 8.505442,11.482346c0,3.827449 -1.275816,6.804353 -4.252721,9.355986c-2.551632,2.551632 -6.379081,3.827449 -11.057074,3.827449l-20.838332,0l0,-48.481017zm10.631802,8.930714l0,10.631802l4.252721,0c2.976905,0 5.103265,-0.425272 6.379081,-1.701088c1.275816,-0.850544 2.12636,-2.551632 2.12636,-4.252721c0,-3.402177 -2.12636,-5.103265 -6.804353,-5.103265l-5.953809,0l0,0.425272zm0,30.194318l5.953809,0c5.528537,0 8.08017,-1.701088 8.08017,-5.528537c0,-3.827449 -2.551632,-5.528537 -8.08017,-5.528537l-5.953809,0l0,11.057074zm-285.357568,52.733738l0,22.964692l0,0l0,0.425272c-4.252721,2.976905 -9.355986,4.677993 -15.735067,4.677993c-7.654897,0 -13.608707,-2.12636 -18.2867,-6.804353c-4.677993,-4.252721 -6.804353,-10.631802 -6.804353,-17.861427c0,-7.229625 2.12636,-13.183435 6.804353,-17.861427c4.677993,-4.677993 10.631802,-6.804353 17.861427,-6.804353c5.528537,0 10.20653,1.275816 14.033979,3.402177l0,7.654897c-4.252721,-2.551632 -8.505442,-3.827449 -13.608707,-3.827449c-5.103265,0 -9.355986,1.701088 -12.33289,5.103265c-2.976905,3.402177 -4.677993,7.654897 -4.677993,13.183435c0,5.528537 1.701088,9.781258 4.677993,13.183435c2.976905,2.976905 7.229625,4.677993 12.758162,4.677993c2.976905,0 5.528537,-0.425272 8.08017,-1.701088l0,-13.183435l-9.355986,0l0,-6.379081l16.585611,0l0,-0.850544zm23.389965,21.263604l19.562516,0l0,6.379081l-27.217413,0l0,-48.055745l7.654897,0l0,41.676664zm29.343774,-17.861427c0,-7.654897 2.12636,-13.608707 5.953809,-17.861427c3.827449,-4.677993 9.355986,-6.804353 16.160339,-6.804353c6.804353,0 12.33289,2.12636 16.160339,6.804353c3.827449,4.677993 5.953809,10.631802 5.953809,17.861427c0,7.654897 -2.12636,13.608707 -5.953809,17.861427c-3.827449,4.677993 -9.355986,6.804353 -16.160339,6.804353c-6.804353,0 -11.907618,-2.12636 -16.160339,-6.804353c-4.252721,-4.252721 -5.953809,-10.20653 -5.953809,-17.861427zm11.482346,-13.183435c-2.551632,3.402177 -3.827449,7.654897 -3.827449,13.183435c0,5.528537 1.275816,9.781258 3.827449,13.183435c2.551632,3.402177 5.953809,4.677993 10.631802,4.677993c4.677993,0 8.08017,-1.701088 10.631802,-4.677993c2.551632,-2.976905 3.827449,-7.654897 3.827449,-13.183435c0,-5.528537 -1.275816,-9.781258 -3.827449,-13.183435c-2.551632,-2.976905 -5.953809,-4.677993 -10.631802,-4.677993c-4.677993,0 -8.08017,1.275816 -10.631802,4.677993zm47.205201,-10.631802l15.735067,0c5.103265,0 8.930714,1.275816 11.907618,3.402177c2.976905,2.551632 4.252721,5.528537 4.252721,9.355986c0,2.551632 -0.850544,5.103265 -2.12636,6.804353c-1.701088,2.12636 -3.402177,3.402177 -5.953809,3.827449c2.551632,0.425272 4.677993,1.701088 6.804353,3.827449c1.701088,2.12636 2.551632,4.677993 2.551632,7.654897c0,3.827449 -1.275816,6.804353 -3.827449,9.355986c-2.551632,2.551632 -6.379081,3.402177 -11.057074,3.402177l-18.2867,0l0,-47.630473zm7.229625,5.953809l0,14.884523l6.804353,0c3.402177,0 6.379081,-0.850544 8.08017,-2.12636c1.701088,-1.275816 2.551632,-3.402177 2.551632,-5.528537c0,-2.12636 -0.850544,-3.827449 -2.12636,-5.103265c-1.701088,-1.275816 -3.827449,-2.12636 -7.229625,-2.12636l-8.08017,0zm0,36.148127l9.355986,0c5.953809,0 8.930714,-2.551632 8.930714,-7.654897c0,-2.551632 -0.850544,-4.252721 -2.551632,-5.528537c-1.701088,-1.275816 -4.252721,-2.12636 -7.229625,-2.12636l-8.505442,0l0,15.309795zm70.595166,5.953809l-3.827449,-11.907618l-19.562516,0l-3.827449,11.907618l-7.654897,0l16.585611,-48.055745l9.781258,0l16.585611,48.055745l-8.08017,0zm-20.838332,-17.861427l15.309795,0l-0.850544,-2.551632c-1.701088,-5.528537 -3.402177,-10.20653 -4.252721,-14.033979c-1.275816,-3.827449 -1.701088,-5.953809 -2.12636,-6.804353l-0.425272,-1.275816c-0.425272,2.12636 -2.976905,9.781258 -6.804353,22.114148l-0.850544,2.551632zm48.90629,11.482346l19.562516,0l0,6.379081l-27.217413,0l0,-48.055745l7.229625,0l0,41.676664l0.425272,0zm-219.015123,51.03265l0,22.964692c-3.827449,2.551632 -8.505442,4.252721 -14.459251,4.252721c-7.229625,0 -13.183435,-2.12636 -17.861427,-6.804353c-4.252721,-4.252721 -6.804353,-10.631802 -6.804353,-18.2867c0,-7.229625 2.12636,-13.183435 6.379081,-17.861427c4.252721,-4.677993 9.781258,-6.804353 16.585611,-6.804353c5.528537,0 10.20653,1.275816 14.033979,3.402177l0,5.103265c-3.827449,-2.551632 -8.08017,-3.827449 -13.608707,-3.827449c-5.528537,0 -10.20653,1.701088 -13.608707,5.528537c-3.402177,3.827449 -5.103265,8.505442 -5.103265,14.884523c0,6.379081 1.701088,11.482346 5.103265,14.884523c3.402177,3.402177 8.505442,5.528537 14.459251,5.528537c3.827449,0 6.804353,-0.850544 9.781258,-2.12636l0,-16.585611l-10.631802,0l0,-3.827449l15.735067,0l0,-0.425272zm47.205201,26.792141l-5.103265,0l-11.907618,-19.562516l-1.275816,0l-7.229625,0l0,19.562516l-4.252721,0l0,-48.055745l11.057074,0c5.528537,0 9.781258,1.275816 12.758162,3.827449c2.976905,2.551632 4.252721,5.953809 4.252721,10.631802c0,3.402177 -0.850544,5.953809 -2.551632,8.505442c-1.701088,2.12636 -4.252721,3.827449 -7.229625,4.677993l11.482346,20.41306zm-25.941597,-23.815237l7.654897,0c3.402177,0 6.379081,-0.850544 8.08017,-2.976905c1.701088,-2.12636 2.976905,-4.252721 2.976905,-7.229625c0,-6.804353 -3.827449,-10.631802 -11.907618,-10.631802l-6.804353,0l0,20.838332zm36.148127,-0.425272c0,-7.654897 1.701088,-13.608707 5.528537,-18.2867c3.827449,-4.677993 8.930714,-6.804353 15.309795,-6.804353c6.804353,0 11.907618,2.12636 15.735067,6.804353c3.827449,4.252721 5.528537,10.631802 5.528537,18.2867c0,7.654897 -1.701088,13.608707 -5.528537,18.2867c-3.827449,4.677993 -8.930714,6.804353 -15.309795,6.804353c-6.379081,0 -11.482346,-2.12636 -15.309795,-6.804353c-4.252721,-5.103265 -5.953809,-11.057074 -5.953809,-18.2867zm4.677993,0c0,6.379081 1.701088,11.482346 4.677993,14.884523c2.976905,3.827449 7.229625,5.528537 11.907618,5.528537c5.103265,0 9.355986,-1.701088 12.33289,-5.528537s4.252721,-8.505442 4.252721,-14.884523c0,-6.379081 -1.275816,-11.482346 -4.252721,-15.309795c-2.976905,-3.402177 -6.804353,-5.528537 -12.33289,-5.528537c-5.103265,0 -9.355986,1.701088 -11.907618,5.528537c-3.402177,3.827449 -4.677993,8.930714 -4.677993,15.309795zm82.077512,5.953809l0,-30.194318l4.252721,0l0,29.769046c0,6.379081 -1.701088,11.057074 -4.677993,14.033979c-2.976905,2.976905 -7.229625,4.677993 -12.758162,4.677993c-5.528537,0 -9.355986,-1.701088 -12.33289,-4.677993c-2.976905,-2.976905 -4.252721,-7.654897 -4.252721,-13.608707l0,-30.61959l4.252721,0l0,30.194318c0,4.677993 1.275816,8.505442 3.402177,10.631802c2.12636,2.12636 5.103265,3.402177 9.355986,3.402177c8.505442,0.850544 12.758162,-3.827449 12.758162,-13.608707zm21.688876,-29.769046l11.482346,0c5.528537,0 10.20653,1.275816 13.183435,4.252721c3.402177,2.976905 4.677993,6.379081 4.677993,11.057074c0,3.827449 -1.701088,7.229625 -4.677993,10.20653c-2.976905,2.976905 -7.229625,4.252721 -12.758162,4.252721l-8.08017,0l0,18.2867l-4.252721,0l0,-48.055745l0.425272,0zm4.252721,25.516325l8.505442,0c3.827449,0 6.804353,-0.850544 8.930714,-2.976905c2.12636,-2.12636 3.402177,-4.677993 3.402177,-7.654897c0,-3.402177 -1.275816,-6.379081 -3.402177,-8.505442c-2.12636,-2.12636 -5.528537,-2.976905 -9.781258,-2.976905l-7.654897,0l0,22.114148z" class="st0" id="logo_b"/>
  </g>
</svg>
