<svg version="1.1" id="Layer_1"
  xmlns="http://www.w3.org/2000/svg"
  xmlns:xlink="http://www.w3.org/1999/xlink" x="0px" y="0px" viewBox="0 0 354 354" style="enable-background:new 0 0 354 354;" xml:space="preserve">
  <style type="text/css">.st0{fill:#0080FF;}
	.st1{fill-rule:evenodd;clip-rule:evenodd;fill:#0080FF;}</style>
  <g>
    <g stroke="null" id="XMLID_44_">
      <g stroke="null" id="XMLID_48_">
        <path stroke="null" d="m176.512425,351.500011l0,-68.133391c72.1178,0 128.098743,-71.520138 100.407102,-147.423126c-10.160242,-27.890862 -32.672152,-50.402771 -60.762234,-60.563014c-75.902988,-27.492421 -147.423126,28.289303 -147.423126,100.407102c0,0 0,0 0,0l-67.93417,0c0,-114.950194 111.165006,-204.599393 231.693372,-166.946729c52.594196,16.535297 94.629709,58.371589 110.965785,110.965785c37.652663,120.528367 -51.996535,231.693372 -166.946729,231.693372z" class="st0" id="XMLID_49_"/>
      </g>
      <polygon stroke="null" points="176.71166785886453,283.76506147303917 108.77748351625814,283.76506147303917 108.77748351625814,215.83087713043278 108.77748351625814,215.83087713043278 176.71166785886453,215.83087713043278 176.71166785886453,215.83087713043278 " class="st1" id="XMLID_47_"/>
      <polygon stroke="null" points="108.77748351625814,335.7616131106297 56.78095223579112,335.7616131106297 56.78095223579112,335.7616131106297 56.78095223579112,283.76506147303917 108.77748351625814,283.76506147303917 108.77748351625814,335.7616131106297 " class="st1" id="XMLID_46_"/>
      <path stroke="null" d="m56.78094,283.765061l-43.629276,0c0,0 0,0 0,0l0,-43.629276c0,0 0,0 0,0l43.629276,0c0,0 0,0 0,0l0,43.629276z" class="st1" id="XMLID_45_"/>
    </g>
  </g>
</svg>
