<svg version="1.1" id="Layer_1"
  xmlns="http://www.w3.org/2000/svg"
  xmlns:xlink="http://www.w3.org/1999/xlink" x="0px" y="0px" viewBox="0 0 354 354" style="enable-background:new 0 0 354 354;" xml:space="preserve">
  <style type="text/css">.st0{fill:#EA4335;}
	.st1{fill:#4285F4;}
	.st2{fill:#34A853;}
	.st3{fill:#FBBC05;}</style>

  <g>
    <g stroke="null" id="svg_6">
      <g stroke="null" id="svg_1">
        <path stroke="null" class="st0" d="m224.826799,109.006545l10.762071,0l30.660076,-30.660076l1.507873,-13.009097c-57.047845,-50.351117 -144.134878,-44.925733 -194.485995,12.122113c-13.999562,15.847445 -24.155527,34.695852 -29.684393,55.096481c3.414888,-1.404391 7.199352,-1.626137 10.762071,-0.650455l61.305368,-10.111616c0,0 3.119227,-5.159289 4.730581,-4.834062c27.274754,-29.950488 73.176169,-33.439292 104.664096,-7.953289l-0.221746,0z" id="svg_2"/>
        <path stroke="null" class="st1" d="m309.918118,132.555966c-7.051522,-25.944278 -21.509359,-49.271954 -41.629109,-67.115112l-43.018717,43.018717c18.168386,14.842197 28.516531,37.208973 28.073039,60.669696l0,7.642844c21.154565,0 38.288137,17.148355 38.288137,38.288137c0,21.154565 -17.148355,38.288137 -38.288137,38.288137l-76.591057,0l-7.642844,7.746326l0,45.930981l7.642844,7.642844l76.591057,0c43.905701,0.34001 82.859076,-28.117388 95.897739,-70.042159c13.009097,-41.939554 -2.956613,-87.471392 -39.322951,-112.070411l0,0z" id="svg_3"/>
        <path stroke="null" class="st2" d="m100.057736,314.239827l76.591057,0l0,-61.305368l-76.591057,0c-5.454951,0 -10.850769,-1.167862 -15.817879,-3.444454l-10.762071,3.326189l-30.867038,30.660076l-2.690518,10.762071c17.310968,13.068229 38.435967,20.090184 60.137506,20.001486l0,0z" id="svg_4"/>
        <path stroke="null" class="st3" d="m100.057736,115.348479c-42.545659,0.251312 -80.22769,27.4965 -93.798544,67.809916c-13.570853,40.313417 -0.044349,84.81044 33.675821,110.739935l44.423108,-44.423108c-19.277116,-8.707225 -27.83651,-31.384446 -19.129285,-50.661562c8.707225,-19.277116 31.384446,-27.83651 50.661562,-19.129285c8.485479,3.843597 15.285689,10.643806 19.129285,19.129285l44.423108,-44.423108c-18.907539,-24.702501 -48.281488,-39.145554 -79.385056,-39.042073l0,0z" id="svg_5"/>
      </g>
    </g>
  </g>
</svg>
