<svg version="1.1" id="Layer_1"
  xmlns="http://www.w3.org/2000/svg"
  xmlns:xlink="http://www.w3.org/1999/xlink" x="0px" y="0px" viewBox="0 0 354 354" style="enable-background:new 0 0 354 354;" xml:space="preserve">
  <g>
    <path stroke="null" id="svg_9" d="m335.276882,15.349078l-36.965981,0c-10.200326,0 -18.541926,8.3552 -18.541926,18.532859l-0.045335,105.988187l-204.065455,0l-0.068002,-106.332732c0,-10.186726 -8.368801,-18.537392 -18.56006,-18.537392l-37.464664,0c-10.200326,0 -18.546459,8.350667 -18.546459,18.537392l0,286.570225c0,10.195793 8.346133,18.555526 18.546459,18.555526l37.464664,0c10.191259,0 18.564593,-8.359734 18.564593,-18.555526l0.031734,-107.593038l204.101723,0l0.045335,107.593038c0,10.195793 8.3416,18.514725 18.541926,18.496591l36.965981,-0.054402c10.227527,-0.022667 18.564593,-8.377868 18.564593,-18.605395l0,-286.062475c-0.004533,-10.177659 -8.3416,-18.532859 -18.569127,-18.532859z" fill="#D20C39"/>
  </g>
</svg>
