<svg width="20" height="18" viewBox="0 0 20 18" fill="none" xmlns="http://www.w3.org/2000/svg">
<path d="M1.5 18C1.10218 18 0.720644 17.842 0.43934 17.5607C0.158035 17.2794 0 16.8978 0 16.5L0 1.5C0 1.10218 0.158035 0.720644 0.43934 0.43934C0.720644 0.158035 1.10218 0 1.5 0L14.5 0C14.8978 0 15.2794 0.158035 15.5607 0.43934C15.842 0.720644 16 1.10218 16 1.5V3H18.5C18.8978 3 19.2794 3.15804 19.5607 3.43934C19.842 3.72064 20 4.10218 20 4.5V16.5C20 16.8978 19.842 17.2794 19.5607 17.5607C19.2794 17.842 18.8978 18 18.5 18H1.5ZM1 1.5V16.5C1 16.6326 1.05268 16.7598 1.14645 16.8536C1.24021 16.9473 1.36739 17 1.5 17H18.5C18.6326 17 18.7598 16.9473 18.8536 16.8536C18.9473 16.7598 19 16.6326 19 16.5V9H15.511C14.9806 9 14.4719 9.21071 14.0968 9.58579C13.7217 9.96086 13.511 10.4696 13.511 11C13.511 11.5304 13.7217 12.0391 14.0968 12.4142C14.4719 12.7893 14.9806 13 15.511 13H17.466C17.5986 13 17.7258 13.0527 17.8196 13.1464C17.9133 13.2402 17.966 13.3674 17.966 13.5C17.966 13.6326 17.9133 13.7598 17.8196 13.8536C17.7258 13.9473 17.5986 14 17.466 14H15.511C14.7154 14 13.9523 13.6839 13.3897 13.1213C12.8271 12.5587 12.511 11.7956 12.511 11C12.511 10.2044 12.8271 9.44129 13.3897 8.87868C13.9523 8.31607 14.7154 8 15.511 8H19V4.5C19 4.36739 18.9473 4.24021 18.8536 4.14645C18.7598 4.05268 18.6326 4 18.5 4H16V5.5C16 5.63261 15.9473 5.75979 15.8536 5.85355C15.7598 5.94732 15.6326 6 15.5 6C15.3674 6 15.2402 5.94732 15.1464 5.85355C15.0527 5.75979 15 5.63261 15 5.5V4H2.5C2.36739 4 2.24021 3.94732 2.14645 3.85355C2.05268 3.75979 2 3.63261 2 3.5C2 3.36739 2.05268 3.24021 2.14645 3.14645C2.24021 3.05268 2.36739 3 2.5 3H15V1.5C15 1.36739 14.9473 1.24021 14.8536 1.14645C14.7598 1.05268 14.6326 1 14.5 1H1.5C1.36739 1 1.24021 1.05268 1.14645 1.14645C1.05268 1.24021 1 1.36739 1 1.5Z" fill="#5769DF"/>
</svg>
